<?xml version="1.0" encoding="utf-8"?>
<!DOCTYPE svg PUBLIC "-//W3C//DTD SVG 1.1//EN" "http://www.w3.org/Graphics/SVG/1.1/DTD/svg11.dtd">
<svg version="1.1" xmlns="http://www.w3.org/2000/svg" xmlns:xlink="http://www.w3.org/1999/xlink" viewBox="-5 0 672 640">
    <g fill="#ffffff">
        <path d="m209,0.999992c-50.099991,2.799999 -94.899994,18.299999 -129.400002,44.799995c-3.199997,2.5 -10.099998,8.5 -15.199997,13.5c-35.400002,33.800003 -56.800003,78.700012 -63.600002,133.700012c-1.899998,15.5 -1.599998,61.099976 0.600002,77.399994c4.199997,32.100006 11.199997,55.399994 24.199997,80.600006c8.300003,16.100006 17.300003,28.699982 30.300003,42.199982c35.699997,37.400024 80.900002,57.900024 140.000008,63.800018c13.299988,1.299988 47.500015,1.299988 61.599991,0c34.600006,-3.299988 77.100006,-12.799988 115.899994,-25.899994l11.800018,-4l4.799988,2.399994c16,8.100006 41.100006,16 73,23.100006c28.900024,6.399994 51.5,12.199982 58.5,15.100006c7.400024,3.099976 17.900024,9.799988 22.400024,14.399963c1.799988,1.900024 4.5,5.900024 6,8.900024c2.200012,4.700012 2.599976,6.799988 2.599976,15c0,8.200012 -0.399963,10.299988 -2.700012,15.200012c-4.299988,9.299988 -14.699951,18 -27.5,23.099976c-14.899963,5.900024 -50.299988,8.5 -72.299988,5.299988c-42.5,-6.199951 -81.600006,-23 -116.699982,-50.299988c-7.600006,-5.799988 -8.5,-6.299988 -13.200012,-6.299988l-5.100006,0l0.200012,52.700012l0.299988,52.700012l9.5,3.799988c27.800018,11.399963 65.700012,22.299988 89.600006,25.700012c33.700012,4.899963 78.999969,5.399963 106.800018,1.099976c47.5,-7.200012 83.399963,-24.099976 109.700012,-51.700012c17.099976,-17.899963 27.199951,-37.200012 32.599976,-62.299988c1.400024,-6.700012 1.799988,-13 1.799988,-29c0,-17.700012 -0.299988,-21.899994 -2.299988,-30.700012c-7.700012,-34.399994 -27.099976,-57.899994 -62.799988,-76.299988c-20.799988,-10.700012 -44.700012,-18.300018 -89.299988,-28.5c-49.800018,-11.300018 -62.200043,-16 -72.100037,-27.200012c-7.899994,-9 -9.899994,-24.299988 -4.699982,-35.600006c5.5,-11.899994 21.5,-23 39.899994,-27.699982c17.899963,-4.5 45,-4.400024 68.5,0.100006c29.5,5.699982 66,22.399994 90.400024,41.5c4.899963,3.899994 6.099976,4.399994 10.699951,4.399994l5.200012,0l0,-50.299988l0,-50.300018l-9.599976,-3.800003c-59.600037,-23.399994 -136.5,-31.800003 -191.100006,-20.699997c-21.400024,4.399994 -41.300018,11.5 -58,20.699997l-9.700012,5.400009l-90.299988,0l-90.300018,0l0,41.5l0,41.5l42.5,0l42.5,0l0,42.899994l0,42.899994l-9.699982,0.700012c-14,1.100006 -38.899994,-0.100006 -52.399994,-2.399994c-54.200027,-9.400024 -90.000015,-41 -102.900024,-90.900024c-9.600006,-37.199982 -8.600006,-84.199982 2.600006,-116.499985c15.399994,-44.199997 47.5,-72.300003 93.099991,-81.400002c13.700027,-2.700005 45.400009,-2.400002 59.300003,0.599998c14.5,3.099998 29.300018,8.199997 43.5,15.100006c14.399994,6.899994 25.800018,14.299988 46.600006,30.099991c15.200012,11.600006 15.700012,11.900009 20.799988,11.900009l5.100006,0l0,-51.900009l0,-51.800003l-12.5,-5.699997c-27,-12.200001 -57.299988,-23 -74.899994,-26.599998c-14.5,-3 -31.600006,-5 -52.600006,-6c-21.200012,-1 -22.099976,-1 -42,0z"/>
    </g>
</svg>